<svg width="211" height="57" viewBox="0 0 211 57" fill="none" xmlns="http://www.w3.org/2000/svg">
<path d="M43.1582 14.13L28.2534 56.25H15.4436L0.538727 14.13H11.433L21.8485 45.93L32.3238 14.13H43.1582ZM60.9643 14.13V56.25H50.7285V14.13H60.9643ZM81.9102 22.35V30.87H95.6179V38.79H81.9102V48.03H97.4136V56.25H71.6743V14.13H97.4136V22.35H81.9102ZM117.587 14.13V56.25H107.351V14.13H117.587ZM149.727 56.25L140.987 40.35H138.533V56.25H128.297V14.13H145.477C148.789 14.13 151.602 14.71 153.917 15.87C156.271 17.03 158.027 18.63 159.185 20.67C160.342 22.67 160.92 24.91 160.92 27.39C160.92 30.19 160.122 32.69 158.526 34.89C156.97 37.09 154.655 38.65 151.583 39.57L161.28 56.25H149.727ZM138.533 33.09H144.878C146.754 33.09 148.151 32.63 149.068 31.71C150.026 30.79 150.505 29.49 150.505 27.81C150.505 26.21 150.026 24.95 149.068 24.03C148.151 23.11 146.754 22.65 144.878 22.65H138.533V33.09ZM196.796 48.81H181.113L178.599 56.25H167.884L183.088 14.13H194.94L210.144 56.25H199.31L196.796 48.81ZM194.162 40.89L188.954 25.47L183.806 40.89H194.162Z" fill="white"/>
<path d="M45.8263 6.62374L36.7815 3.39651L32.7142 14.8494L41.759 18.0767L45.8263 6.62374Z" fill="white"/>
<path d="M38.591 0.587485L36.7872 0.0133362L32.0959 14.821L33.8997 15.3951L38.591 0.587485Z" fill="white"/>
<path d="M210.753 0H37.4118V7.5H210.753V0Z" fill="white"/>
<path d="M38.0357 0H36.7886V0.625H38.0357V0Z" fill="white"/>
</svg>
